<?xml version="1.0" encoding="UTF-8"?>
<!DOCTYPE svg PUBLIC "-//W3C//DTD SVG 1.1//EN" "http://www.w3.org/Graphics/SVG/1.1/DTD/svg11.dtd">
<svg xmlns="http://www.w3.org/2000/svg" version="1.1" width="750px" height="750px"
    style="shape-rendering:geometricPrecision; text-rendering:geometricPrecision; image-rendering:optimizeQuality; fill-rule:evenodd; clip-rule:evenodd"
    xmlns:xlink="http://www.w3.org/1999/xlink">
    <g>
        <path style="opacity:1" fill="#fefefe"
            d="M -0.5,-0.5 C 249.5,-0.5 499.5,-0.5 749.5,-0.5C 749.5,249.5 749.5,499.5 749.5,749.5C 499.5,749.5 249.5,749.5 -0.5,749.5C -0.5,499.5 -0.5,249.5 -0.5,-0.5 Z" />
    </g>
    <g>
        <path style="opacity:1" fill="#fd9d2d"
            d="M 545.5,180.5 C 542.769,181.374 540.602,180.374 539,177.5C 541.131,181.817 544.298,185.484 548.5,188.5C 562.012,206.189 574.012,224.855 584.5,244.5C 587.166,252.166 589.833,259.833 592.5,267.5C 592.799,271.826 593.799,275.993 595.5,280C 595.546,281.728 595.046,283.228 594,284.5C 593.667,282.5 593.333,280.5 593,278.5C 591.982,279.706 591.482,279.373 591.5,277.5C 591.608,276.558 591.941,275.725 592.5,275C 590.844,273.203 589.844,271.036 589.5,268.5C 589.043,267.702 588.376,267.369 587.5,267.5C 584.058,259.266 580.558,250.933 577,242.5C 574.725,238.268 572.225,234.268 569.5,230.5C 578.912,249.389 586.579,269.056 592.5,289.5C 593.039,291.505 593.705,293.505 594.5,295.5C 597.695,292.494 600.361,289.661 602.5,287C 602.833,286.833 603.167,286.667 603.5,286.5C 604.176,287.602 604.842,288.602 605.5,289.5C 618.678,337.794 615.678,385.294 596.5,432C 596.167,432.5 595.833,433 595.5,433.5C 594.482,432.807 593.482,432.141 592.5,431.5C 593.877,427.222 594.711,422.888 595,418.5C 594.089,422.23 592.589,425.563 590.5,428.5C 589.167,427.833 588.167,426.833 587.5,425.5C 592.068,414.23 594.901,402.563 596,390.5C 593.937,401.416 590.937,412.083 587,422.5C 586.583,423.756 585.75,424.423 584.5,424.5C 583.883,424.389 583.383,424.056 583,423.5C 582.333,421.167 582.333,418.833 583,416.5C 585.944,409.395 587.611,402.062 588,394.5C 587.311,395.357 586.478,396.023 585.5,396.5C 584.692,394.577 584.192,392.577 584,390.5C 581.595,395.212 579.095,399.878 576.5,404.5C 579.369,362.783 574.202,322.117 561,282.5C 560.821,285.147 560.988,287.814 561.5,290.5C 561.167,291.833 560.833,293.167 560.5,294.5C 550.815,271.46 539.315,249.46 526,228.5C 478.778,166.395 415.945,137.561 337.5,142C 261.764,152.432 206.597,191.598 172,259.5C 144.717,325.243 147.717,389.576 181,452.5C 215.12,508.999 264.62,543.999 329.5,557.5C 328.791,558.404 327.791,558.737 326.5,558.5C 248.696,542.522 193.863,498.189 162,425.5C 158.213,414.927 154.713,404.26 151.5,393.5C 161.135,445.676 187.468,487.51 230.5,519C 247.285,530.393 264.952,540.227 283.5,548.5C 283.167,549.5 282.5,550.167 281.5,550.5C 269.252,546.292 257.752,540.626 247,533.5C 246.5,533.667 246,533.833 245.5,534C 287.563,562.265 333.897,573.431 384.5,567.5C 385.791,567.737 386.791,567.404 387.5,566.5C 393.954,566.768 400.287,566.102 406.5,564.5C 407.167,564.5 407.5,564.167 407.5,563.5C 430.57,559.035 452.237,551.035 472.5,539.5C 473.391,538.89 474.391,538.557 475.5,538.5C 476.167,538.5 476.5,538.833 476.5,539.5C 475.167,540.167 473.833,540.833 472.5,541.5C 453.555,552.136 433.555,560.302 412.5,566C 434.137,561.62 454.47,553.787 473.5,542.5C 481.564,538.476 488.897,533.476 495.5,527.5C 501.715,523.891 507.382,519.558 512.5,514.5C 512.833,514.5 513.167,514.5 513.5,514.5C 511.573,517.767 509.239,520.767 506.5,523.5C 451.743,566.292 389.743,582.625 320.5,572.5C 304.208,569.232 288.208,565.065 272.5,560C 286.847,566.615 301.847,571.115 317.5,573.5C 323.32,574.886 329.32,576.053 335.5,577C 361.427,578.605 387.094,576.938 412.5,572C 424.842,567.994 437.175,563.828 449.5,559.5C 452.157,559.935 454.491,560.935 456.5,562.5C 417.52,578.596 376.853,585.596 334.5,583.5C 324.943,581.941 315.277,580.274 305.5,578.5C 290.242,574.525 275.242,569.525 260.5,563.5C 243.909,554.868 227.909,545.202 212.5,534.5C 206.752,528.744 200.752,523.411 194.5,518.5C 192.167,515.997 190.001,513.331 188,510.5C 186.549,508.536 184.716,507.203 182.5,506.5C 176.523,499.013 170.69,491.346 165,483.5C 152.195,465.224 142.028,445.557 134.5,424.5C 134.44,423.957 134.107,423.624 133.5,423.5C 132.818,424.243 132.151,424.909 131.5,425.5C 120.055,392.509 115.388,358.509 117.5,323.5C 120.139,303.886 124.472,284.553 130.5,265.5C 132.818,258.502 135.485,251.502 138.5,244.5C 138.376,243.893 138.043,243.56 137.5,243.5C 137.5,243.167 137.5,242.833 137.5,242.5C 138.5,242.5 139.5,242.5 140.5,242.5C 142.68,235.805 145.68,229.472 149.5,223.5C 149.291,222.914 148.957,222.414 148.5,222C 149.624,221.751 150.624,221.251 151.5,220.5C 150.873,219.583 150.539,218.583 150.5,217.5C 159.095,203.336 168.928,190.003 180,177.5C 194.485,164.019 209.318,150.853 224.5,138C 276.61,102.312 333.943,89.9786 396.5,101C 455.421,110.785 505.088,137.285 545.5,180.5 Z" />
    </g>
    <g>
        <path style="opacity:1" fill="#fac576"
            d="M 569.5,230.5 C 567.355,227.567 565.188,224.567 563,221.5C 561.699,219.598 561.032,217.598 561,215.5C 564.364,220.23 567.197,225.23 569.5,230.5 Z" />
    </g>
    <g>
        <path style="opacity:1" fill="#f9b962"
            d="M 150.5,217.5 C 150.539,218.583 150.873,219.583 151.5,220.5C 150.624,221.251 149.624,221.751 148.5,222C 148.957,222.414 149.291,222.914 149.5,223.5C 145.68,229.472 142.68,235.805 140.5,242.5C 139.5,242.5 138.5,242.5 137.5,242.5C 141.595,233.975 145.928,225.642 150.5,217.5 Z" />
    </g>
    <g>
        <path style="opacity:1" fill="#f9ce8a"
            d="M 548.5,188.5 C 557.238,198.081 565.071,208.415 572,219.5C 576.726,227.619 580.893,235.952 584.5,244.5C 574.012,224.855 562.012,206.189 548.5,188.5 Z" />
    </g>
    <g>
        <path style="opacity:1" fill="#fda339"
            d="M 545.5,180.5 C 574.584,211.654 594.584,247.987 605.5,289.5C 604.842,288.602 604.176,287.602 603.5,286.5C 603.167,286.667 602.833,286.833 602.5,287C 600.361,289.661 597.695,292.494 594.5,295.5C 593.705,293.505 593.039,291.505 592.5,289.5C 593.124,289.083 593.457,288.416 593.5,287.5C 591.378,280.911 589.378,274.244 587.5,267.5C 588.376,267.369 589.043,267.702 589.5,268.5C 589.844,271.036 590.844,273.203 592.5,275C 591.941,275.725 591.608,276.558 591.5,277.5C 591.482,279.373 591.982,279.706 593,278.5C 593.333,280.5 593.667,282.5 594,284.5C 595.046,283.228 595.546,281.728 595.5,280C 593.799,275.993 592.799,271.826 592.5,267.5C 593.661,270.102 594.828,272.769 596,275.5C 594.379,264.275 590.546,253.941 584.5,244.5C 580.893,235.952 576.726,227.619 572,219.5C 565.071,208.415 557.238,198.081 548.5,188.5C 544.298,185.484 541.131,181.817 539,177.5C 540.602,180.374 542.769,181.374 545.5,180.5 Z" />
    </g>
    <g>
        <path style="opacity:1" fill="#f4c07a"
            d="M 137.5,243.5 C 138.043,243.56 138.376,243.893 138.5,244.5C 135.485,251.502 132.818,258.502 130.5,265.5C 130.631,264.761 130.464,264.094 130,263.5C 128.859,267.383 127.359,270.383 125.5,272.5C 126.889,267.832 128.389,263.165 130,258.5C 132.365,253.339 134.865,248.339 137.5,243.5 Z" />
    </g>
    <g>
        <path style="opacity:1" fill="#fbd08f"
            d="M 569.5,230.5 C 572.225,234.268 574.725,238.268 577,242.5C 580.558,250.933 584.058,259.266 587.5,267.5C 589.378,274.244 591.378,280.911 593.5,287.5C 593.457,288.416 593.124,289.083 592.5,289.5C 586.579,269.056 578.912,249.389 569.5,230.5 Z" />
    </g>
    <g>
        <path style="opacity:1" fill="#fad091"
            d="M 584.5,244.5 C 590.546,253.941 594.379,264.275 596,275.5C 594.828,272.769 593.661,270.102 592.5,267.5C 589.833,259.833 587.166,252.166 584.5,244.5 Z" />
    </g>
    <g>
        <path style="opacity:1" fill="#0a0a0a"
            d="M 326.5,257.5 C 342.164,257.925 348.664,265.925 346,281.5C 343.785,286.1 340.952,290.266 337.5,294C 333.025,297.08 328.692,300.413 324.5,304C 316.014,309 307.68,314.167 299.5,319.5C 298.479,318.998 298.312,318.332 299,317.5C 305.833,311.333 312.667,305.167 319.5,299C 325.054,293.949 330.054,288.449 334.5,282.5C 332.769,280.655 331.102,278.822 329.5,277C 330.289,275.374 331.289,273.874 332.5,272.5C 325.222,270.857 318.222,271.69 311.5,275C 291.968,283.773 273.968,295.107 257.5,309C 251.105,315.131 247.105,322.464 245.5,331C 245.494,333.3 245.994,335.466 247,337.5C 253.686,344.421 261.186,350.254 269.5,355C 279.275,360.439 289.275,365.439 299.5,370C 305,374.833 310.5,379.667 316,384.5C 321.179,391.367 323.513,399.033 323,407.5C 321.657,411.51 319.491,415.01 316.5,418C 287.794,437.457 255.96,447.957 221,449.5C 214.301,449.727 207.801,448.727 201.5,446.5C 202.065,443.492 203.065,440.659 204.5,438C 237.938,438.456 269.271,430.456 298.5,414C 304.612,410.221 310.445,406.055 316,401.5C 316.667,399.167 316.667,396.833 316,394.5C 313.872,391.37 311.372,388.537 308.5,386C 291.028,375.761 273.361,365.761 255.5,356C 248.783,350.629 243.617,344.129 240,336.5C 239.333,330.167 239.333,323.833 240,317.5C 245.113,306.435 252.28,296.935 261.5,289C 281.463,274.683 303.129,264.183 326.5,257.5 Z" />
    </g>
    <g>
        <path style="opacity:1" fill="#f6a95b"
            d="M 124.5,275.5 C 125.097,275.735 125.43,276.235 125.5,277C 121.466,291.299 118.466,305.799 116.5,320.5C 116.5,321.5 116.5,322.5 116.5,323.5C 115.549,322.081 115.216,320.415 115.5,318.5C 116.937,303.721 119.937,289.388 124.5,275.5 Z" />
    </g>
    <g>
        <path style="opacity:1" fill="#070707"
            d="M 491.5,284.5 C 502.165,283.205 512.165,285.038 521.5,290C 526.282,295.617 527.782,302.117 526,309.5C 523.82,316.692 519.987,322.859 514.5,328C 508.42,327.78 504.42,324.613 502.5,318.5C 506.881,313.61 510.714,308.277 514,302.5C 516.573,294.58 513.74,290.247 505.5,289.5C 495.507,291.414 487.007,296.081 480,303.5C 457.71,329.373 448.043,359.373 451,393.5C 452.517,399.682 455.683,404.849 460.5,409C 466.305,409.549 471.638,408.216 476.5,405C 487.118,397.772 497.284,389.939 507,381.5C 507.87,382.108 508.37,382.941 508.5,384C 499.223,398.278 487.556,410.278 473.5,420C 449.448,423.957 434.281,414.124 428,390.5C 423.225,350.112 437.058,317.945 469.5,294C 476.475,289.74 483.809,286.573 491.5,284.5 Z" />
    </g>
    <g>
        <path style="opacity:1" fill="#070606"
            d="M 413.5,363.5 C 412.111,368.269 411.444,373.269 411.5,378.5C 410.579,391.137 410.246,403.803 410.5,416.5C 403.775,416.203 397.609,414.203 392,410.5C 391.148,393.784 391.648,377.118 393.5,360.5C 382.249,360.144 371.083,360.144 360,360.5C 350.35,378.291 343.85,396.957 340.5,416.5C 336.028,415.191 332.195,412.858 329,409.5C 328.333,406.833 328.333,404.167 329,401.5C 335.003,386.835 341.503,372.502 348.5,358.5C 344.774,358.823 341.107,358.489 337.5,357.5C 341.902,354.198 346.902,352.364 352.5,352C 364.973,332.856 379.639,315.523 396.5,300C 399.997,297.417 403.664,295.084 407.5,293C 408.337,291.989 408.67,290.822 408.5,289.5C 416.882,290.729 424.215,294.063 430.5,299.5C 421.579,319.936 415.912,341.27 413.5,363.5 Z" />
    </g>
    <g>
        <path style="opacity:1" fill="#f5f5f5"
            d="M 403.5,308.5 C 404.376,308.369 405.043,308.702 405.5,309.5C 401.621,322.307 398.455,335.307 396,348.5C 386.56,349.817 377.06,349.817 367.5,348.5C 376.756,332.623 388.756,319.29 403.5,308.5 Z" />
    </g>
    <g>
        <path style="opacity:1" fill="#fbe0bd"
            d="M 130.5,265.5 C 124.472,284.553 120.139,303.886 117.5,323.5C 117.737,322.209 117.404,321.209 116.5,320.5C 118.466,305.799 121.466,291.299 125.5,277C 125.43,276.235 125.097,275.735 124.5,275.5C 124.263,274.209 124.596,273.209 125.5,272.5C 127.359,270.383 128.859,267.383 130,263.5C 130.464,264.094 130.631,264.761 130.5,265.5 Z" />
    </g>
    <g>
        <path style="opacity:1" fill="#f9cb8c"
            d="M 602.5,336.5 C 601.833,338.833 601.167,341.167 600.5,343.5C 600.72,337.631 600.386,331.797 599.5,326C 600.316,322.805 600.983,322.972 601.5,326.5C 602.21,329.799 602.543,333.133 602.5,336.5 Z" />
    </g>
    <g>
        <path style="opacity:1" fill="#fcc07d"
            d="M 115.5,318.5 C 115.216,320.415 115.549,322.081 116.5,323.5C 115.023,341.696 115.356,359.863 117.5,378C 117.333,379.167 117.167,380.333 117,381.5C 116.64,379.392 115.973,377.392 115,375.5C 112.901,356.32 113.068,337.32 115.5,318.5 Z" />
    </g>
    <g>
        <path style="opacity:1" fill="#fce7c6"
            d="M 602.5,336.5 C 602.5,346.167 602.5,355.833 602.5,365.5C 601.883,365.611 601.383,365.944 601,366.5C 600.505,364.527 600.338,362.527 600.5,360.5C 600.5,354.833 600.5,349.167 600.5,343.5C 601.167,341.167 601.833,338.833 602.5,336.5 Z" />
    </g>
    <g>
        <path style="opacity:1" fill="#f9cd83"
            d="M 600.5,360.5 C 600.338,362.527 600.505,364.527 601,366.5C 601.383,365.944 601.883,365.611 602.5,365.5C 601.451,371.794 600.618,378.128 600,384.5C 599,386.167 598,387.833 597,389.5C 597.191,380.327 597.857,370.994 599,361.5C 599.383,360.944 599.883,360.611 600.5,360.5 Z" />
    </g>
    <g>
        <path style="opacity:1" fill="#adabad"
            d="M 413.5,363.5 C 413.556,368.731 412.889,373.731 411.5,378.5C 411.444,373.269 412.111,368.269 413.5,363.5 Z" />
    </g>
    <g>
        <path style="opacity:1" fill="#fcd79e"
            d="M 587.5,425.5 C 586.209,425.737 585.209,425.404 584.5,424.5C 585.75,424.423 586.583,423.756 587,422.5C 590.937,412.083 593.937,401.416 596,390.5C 594.901,402.563 592.068,414.23 587.5,425.5 Z" />
    </g>
    <g>
        <path style="opacity:1" fill="#fed6b0"
            d="M 131.5,434.5 C 130.883,434.389 130.383,434.056 130,433.5C 124.396,419.402 120.563,405.069 118.5,390.5C 122.523,405.259 126.856,419.925 131.5,434.5 Z" />
    </g>
    <g>
        <path style="opacity:1" fill="#fbc87f"
            d="M 592.5,431.5 C 591.599,430.71 590.932,429.71 590.5,428.5C 592.589,425.563 594.089,422.23 595,418.5C 594.711,422.888 593.877,427.222 592.5,431.5 Z" />
    </g>
    <g>
        <path style="opacity:1" fill="#fefbf9"
            d="M 569.5,454.5 C 570.807,457.78 572.473,460.78 574.5,463.5C 576.986,469.778 579.319,476.111 581.5,482.5C 581.573,484.027 580.906,485.027 579.5,485.5C 570.302,478.764 559.969,474.764 548.5,473.5C 545.361,462.751 542.028,452.084 538.5,441.5C 550.974,440.984 561.307,445.318 569.5,454.5 Z" />
    </g>
    <g>
        <path style="opacity:1" fill="#fed3a9"
            d="M 131.5,434.5 C 134.068,438.856 136.068,443.522 137.5,448.5C 134.449,444.386 132.449,439.72 131.5,434.5 Z" />
    </g>
    <g>
        <path style="opacity:1" fill="#fa9238"
            d="M 569.5,452.5 C 569.5,453.167 569.5,453.833 569.5,454.5C 561.307,445.318 550.974,440.984 538.5,441.5C 542.028,452.084 545.361,462.751 548.5,473.5C 559.969,474.764 570.302,478.764 579.5,485.5C 582.498,488.667 585.331,492 588,495.5C 588.692,496.437 588.525,497.103 587.5,497.5C 578.334,494.082 568.834,492.748 559,493.5C 553.5,493.667 548,493.833 542.5,494C 537.186,495.03 531.853,495.863 526.5,496.5C 522.911,482.73 518.911,469.063 514.5,455.5C 516.527,455.338 518.527,455.505 520.5,456C 521.406,458.221 522.406,460.388 523.5,462.5C 526.496,471.822 529.496,481.155 532.5,490.5C 542.981,490.777 553.648,490.777 564.5,490.5C 570.221,490.918 575.888,491.418 581.5,492C 577.858,488.513 573.858,485.513 569.5,483C 560.415,479.749 551.249,476.915 542,474.5C 538.233,463.032 534.4,451.699 530.5,440.5C 529.769,438.401 529.769,436.401 530.5,434.5C 541.139,436.726 551.472,439.893 561.5,444C 565.048,446.047 567.715,448.88 569.5,452.5 Z" />
    </g>
    <g>
        <path style="opacity:1" fill="#fad8ae"
            d="M 569.5,452.5 C 571.239,455.635 573.239,458.635 575.5,461.5C 574.662,461.842 574.328,462.508 574.5,463.5C 572.473,460.78 570.807,457.78 569.5,454.5C 569.5,453.833 569.5,453.167 569.5,452.5 Z" />
    </g>
    <g>
        <path style="opacity:1" fill="#1f88dd"
            d="M 528.5,445.5 C 532.313,457.404 536.313,469.237 540.5,481C 551.37,481.305 561.703,483.639 571.5,488C 559.242,486.915 546.908,486.249 534.5,486C 531.893,478.106 529.226,470.272 526.5,462.5C 525.073,456.312 523.073,450.312 520.5,444.5C 523.354,443.55 526.02,443.883 528.5,445.5 Z" />
    </g>
    <g>
        <path style="opacity:1" fill="#f99134"
            d="M 594.5,478.5 C 592.223,484.149 591.056,490.149 591,496.5C 587.563,491.941 584.396,487.274 581.5,482.5C 579.319,476.111 576.986,469.778 574.5,463.5C 574.328,462.508 574.662,461.842 575.5,461.5C 578.239,470.437 583.905,473.271 592.5,470C 596.667,467.167 600.167,463.667 603,459.5C 600.217,465.743 597.384,472.076 594.5,478.5 Z" />
    </g>
    <g>
        <path style="opacity:1" fill="#2f8fe0"
            d="M 584.5,461.5 C 590.53,461.815 592.197,464.481 589.5,469.5C 585.559,471.437 583.226,470.271 582.5,466C 583.074,464.393 583.74,462.893 584.5,461.5 Z" />
    </g>
    <g>
        <path style="opacity:1" fill="#f0f2f1"
            d="M 530.5,440.5 C 534.4,451.699 538.233,463.032 542,474.5C 551.249,476.915 560.415,479.749 569.5,483C 573.858,485.513 577.858,488.513 581.5,492C 575.888,491.418 570.221,490.918 564.5,490.5C 553.99,489.341 543.324,489.341 532.5,490.5C 529.496,481.155 526.496,471.822 523.5,462.5C 524.5,461.167 525.5,461.167 526.5,462.5C 529.226,470.272 531.893,478.106 534.5,486C 546.908,486.249 559.242,486.915 571.5,488C 561.703,483.639 551.37,481.305 540.5,481C 536.313,469.237 532.313,457.404 528.5,445.5C 529.575,446.562 530.575,446.562 531.5,445.5C 530.691,443.929 530.357,442.262 530.5,440.5 Z" />
    </g>
    <g>
        <path style="opacity:1" fill="#fce0ae"
            d="M 134.5,424.5 C 142.028,445.557 152.195,465.224 165,483.5C 170.69,491.346 176.523,499.013 182.5,506.5C 160.618,483.436 144.285,456.769 133.5,426.5C 133.543,425.584 133.876,424.917 134.5,424.5 Z" />
    </g>
    <g>
        <path style="opacity:1" fill="#fdba86"
            d="M 564.5,490.5 C 553.648,490.777 542.981,490.777 532.5,490.5C 543.324,489.341 553.99,489.341 564.5,490.5 Z" />
    </g>
    <g>
        <path style="opacity:1" fill="#fce4cb"
            d="M 594.5,478.5 C 593.971,484.351 593.304,490.184 592.5,496C 591.158,498.288 589.491,498.788 587.5,497.5C 588.525,497.103 588.692,496.437 588,495.5C 585.331,492 582.498,488.667 579.5,485.5C 580.906,485.027 581.573,484.027 581.5,482.5C 584.396,487.274 587.563,491.941 591,496.5C 591.056,490.149 592.223,484.149 594.5,478.5 Z" />
    </g>
    <g>
        <path style="opacity:1" fill="#fcefdf"
            d="M 326.5,558.5 C 330.639,559.563 334.972,560.23 339.5,560.5C 338.791,561.404 337.791,561.737 336.5,561.5C 318.058,560.139 300.391,555.806 283.5,548.5C 264.952,540.227 247.285,530.393 230.5,519C 187.468,487.51 161.135,445.676 151.5,393.5C 154.713,404.26 158.213,414.927 162,425.5C 193.863,498.189 248.696,542.522 326.5,558.5 Z" />
    </g>
    <g>
        <path style="opacity:1" fill="#fde6cf"
            d="M 137.5,448.5 C 138.5,449.833 139.5,449.833 140.5,448.5C 160.661,489.466 189.661,522.799 227.5,548.5C 225.067,549.329 222.733,548.829 220.5,547C 183.494,521.845 155.827,489.011 137.5,448.5 Z" />
    </g>
    <g>
        <path style="opacity:1" fill="#fbd392"
            d="M 182.5,506.5 C 184.716,507.203 186.549,508.536 188,510.5C 190.001,513.331 192.167,515.997 194.5,518.5C 189.5,515.5 185.5,511.5 182.5,506.5 Z" />
    </g>
    <g>
        <path style="opacity:1" fill="#fde7c8"
            d="M 512.5,512.5 C 512.5,513.167 512.5,513.833 512.5,514.5C 507.382,519.558 501.715,523.891 495.5,527.5C 500.938,522.275 506.605,517.275 512.5,512.5 Z" />
    </g>
    <g>
        <path style="opacity:1" fill="#f9e5cc"
            d="M 511.5,521.5 C 509.629,521.859 508.129,522.859 507,524.5C 506.601,524.272 506.435,523.938 506.5,523.5C 509.239,520.767 511.573,517.767 513.5,514.5C 514.151,515.091 514.818,515.757 515.5,516.5C 519.011,513.488 522.344,510.322 525.5,507C 526.332,506.312 526.998,506.479 527.5,507.5C 522.449,512.555 517.115,517.222 511.5,521.5 Z" />
    </g>
    <g>
        <path style="opacity:1" fill="#fbcf82"
            d="M 194.5,518.5 C 200.752,523.411 206.752,528.744 212.5,534.5C 207.11,531.29 202.11,527.456 197.5,523C 195.859,521.871 194.859,520.371 194.5,518.5 Z" />
    </g>
    <g>
        <path style="opacity:1" fill="#fbe4be"
            d="M 495.5,527.5 C 488.897,533.476 481.564,538.476 473.5,542.5C 472.833,542.5 472.5,542.167 472.5,541.5C 473.833,540.833 475.167,540.167 476.5,539.5C 482.693,535.239 489.026,531.239 495.5,527.5 Z" />
    </g>
    <g>
        <path style="opacity:1" fill="#f8b163"
            d="M 512.5,512.5 C 506.605,517.275 500.938,522.275 495.5,527.5C 489.026,531.239 482.693,535.239 476.5,539.5C 476.5,538.833 476.167,538.5 475.5,538.5C 492.143,528.567 507.31,516.567 521,502.5C 519.206,506.481 516.373,509.814 512.5,512.5 Z" />
    </g>
    <g>
        <path style="opacity:1" fill="#f7ca91"
            d="M 532.5,511.5 C 523.416,520.255 513.75,528.255 503.5,535.5C 503.167,535.5 502.833,535.5 502.5,535.5C 512.232,527.944 521.566,519.777 530.5,511C 531.437,510.308 532.103,510.475 532.5,511.5 Z" />
    </g>
    <g>
        <path style="opacity:1" fill="#fcae52"
            d="M 134.5,424.5 C 133.876,424.917 133.543,425.584 133.5,426.5C 144.285,456.769 160.618,483.436 182.5,506.5C 185.5,511.5 189.5,515.5 194.5,518.5C 194.859,520.371 195.859,521.871 197.5,523C 202.11,527.456 207.11,531.29 212.5,534.5C 227.909,545.202 243.909,554.868 260.5,563.5C 259.209,563.263 258.209,563.596 257.5,564.5C 247.209,559.688 237.209,554.355 227.5,548.5C 189.661,522.799 160.661,489.466 140.5,448.5C 137.304,440.912 134.304,433.246 131.5,425.5C 132.151,424.909 132.818,424.243 133.5,423.5C 134.107,423.624 134.44,423.957 134.5,424.5 Z" />
    </g>
    <g>
        <path style="opacity:1" fill="#fda130"
            d="M 257.5,564.5 C 258.209,563.596 259.209,563.263 260.5,563.5C 265.129,566.481 270.129,568.981 275.5,571C 284.967,574.545 294.634,577.378 304.5,579.5C 313.662,581.932 322.996,583.598 332.5,584.5C 410.776,591.966 478.11,568.633 534.5,514.5C 535.838,512.887 537.505,512.387 539.5,513C 490.581,563.528 430.748,588.694 360,588.5C 323.705,588.813 289.539,580.813 257.5,564.5 Z" />
    </g>
    <g>
        <path style="opacity:1" fill="#fcd78f"
            d="M 472.5,541.5 C 472.5,542.167 472.833,542.5 473.5,542.5C 454.47,553.787 434.137,561.62 412.5,566C 433.555,560.302 453.555,552.136 472.5,541.5 Z" />
    </g>
    <g>
        <path style="opacity:1" fill="#f9d5a5"
            d="M 472.5,539.5 C 452.237,551.035 430.57,559.035 407.5,563.5C 407.196,562.85 406.863,562.183 406.5,561.5C 408.862,560.729 411.196,559.895 413.5,559C 412.906,558.536 412.239,558.369 411.5,558.5C 432.56,553.136 452.894,545.469 472.5,535.5C 473.696,535.846 473.696,536.346 472.5,537C 467.408,538.67 467.408,539.503 472.5,539.5 Z" />
    </g>
    <g>
        <path style="opacity:1" fill="#fdad4a"
            d="M 283.5,548.5 C 300.391,555.806 318.058,560.139 336.5,561.5C 339.305,562.319 342.305,562.819 345.5,563C 357.162,563.5 368.829,563.667 380.5,563.5C 381.978,563.238 383.311,563.571 384.5,564.5C 384.376,565.107 384.043,565.44 383.5,565.5C 369.496,565.667 355.496,565.5 341.5,565C 329.508,563.136 317.508,561.136 305.5,559C 297.04,557.065 289.04,554.232 281.5,550.5C 282.5,550.167 283.167,549.5 283.5,548.5 Z" />
    </g>
    <g>
        <path style="opacity:1" fill="#f0ab64"
            d="M 329.5,557.5 C 338.07,559.23 346.737,560.23 355.5,560.5C 350.325,561.559 344.991,561.559 339.5,560.5C 334.972,560.23 330.639,559.563 326.5,558.5C 327.791,558.737 328.791,558.404 329.5,557.5 Z" />
    </g>
    <g>
        <path style="opacity:1" fill="#fab764"
            d="M 502.5,535.5 C 502.833,535.5 503.167,535.5 503.5,535.5C 489.278,546.785 473.611,555.785 456.5,562.5C 454.491,560.935 452.157,559.935 449.5,559.5C 456.773,555.864 464.106,552.197 471.5,548.5C 472.107,548.624 472.44,548.957 472.5,549.5C 468.472,552.181 464.139,554.347 459.5,556C 457.561,556.908 456.561,558.408 456.5,560.5C 472.8,553.847 488.134,545.514 502.5,535.5 Z" />
    </g>
    <g>
        <path style="opacity:1" fill="#fff5e7"
            d="M 532.5,511.5 C 532.285,513.179 532.952,514.179 534.5,514.5C 478.11,568.633 410.776,591.966 332.5,584.5C 332.842,583.662 333.508,583.328 334.5,583.5C 376.853,585.596 417.52,578.596 456.5,562.5C 473.611,555.785 489.278,546.785 503.5,535.5C 513.75,528.255 523.416,520.255 532.5,511.5 Z" />
    </g>
    <g>
        <path style="opacity:1" fill="#f9bb6d"
            d="M 411.5,558.5 C 412.239,558.369 412.906,558.536 413.5,559C 411.196,559.895 408.862,560.729 406.5,561.5C 406.863,562.183 407.196,562.85 407.5,563.5C 407.5,564.167 407.167,564.5 406.5,564.5C 406.082,563.778 405.416,563.278 404.5,563C 398.094,562.44 391.761,562.94 385.5,564.5C 386.243,565.182 386.909,565.849 387.5,566.5C 386.791,567.404 385.791,567.737 384.5,567.5C 384.167,566.833 383.833,566.167 383.5,565.5C 384.043,565.44 384.376,565.107 384.5,564.5C 383.311,563.571 381.978,563.238 380.5,563.5C 380.5,563.167 380.5,562.833 380.5,562.5C 390.905,561.71 401.238,560.377 411.5,558.5 Z" />
    </g>
    <g>
        <path style="opacity:1" fill="#fae1b5"
            d="M 339.5,560.5 C 344.991,561.559 350.325,561.559 355.5,560.5C 362.841,560.334 370.174,560.5 377.5,561C 378.244,562.039 379.244,562.539 380.5,562.5C 380.5,562.833 380.5,563.167 380.5,563.5C 368.829,563.667 357.162,563.5 345.5,563C 342.305,562.819 339.305,562.319 336.5,561.5C 337.791,561.737 338.791,561.404 339.5,560.5 Z" />
    </g>
    <g>
        <path style="opacity:1" fill="#fbdcaa"
            d="M 406.5,564.5 C 400.287,566.102 393.954,566.768 387.5,566.5C 386.909,565.849 386.243,565.182 385.5,564.5C 391.761,562.94 398.094,562.44 404.5,563C 405.416,563.278 406.082,563.778 406.5,564.5 Z" />
    </g>
    <g>
        <path style="opacity:1" fill="#fbe9cf"
            d="M 281.5,550.5 C 289.04,554.232 297.04,557.065 305.5,559C 317.508,561.136 329.508,563.136 341.5,565C 355.496,565.5 369.496,565.667 383.5,565.5C 383.833,566.167 384.167,566.833 384.5,567.5C 333.897,573.431 287.563,562.265 245.5,534C 246,533.833 246.5,533.667 247,533.5C 257.752,540.626 269.252,546.292 281.5,550.5 Z" />
    </g>
    <g>
        <path style="opacity:1" fill="#fde1bb"
            d="M 320.5,572.5 C 319.791,573.404 318.791,573.737 317.5,573.5C 301.847,571.115 286.847,566.615 272.5,560C 288.208,565.065 304.208,569.232 320.5,572.5 Z" />
    </g>
    <g>
        <path style="opacity:1" fill="#fcdbaa"
            d="M 511.5,521.5 C 499.639,532.352 486.639,541.685 472.5,549.5C 472.44,548.957 472.107,548.624 471.5,548.5C 464.106,552.197 456.773,555.864 449.5,559.5C 437.175,563.828 424.842,567.994 412.5,572C 387.094,576.938 361.427,578.605 335.5,577C 329.32,576.053 323.32,574.886 317.5,573.5C 318.791,573.737 319.791,573.404 320.5,572.5C 389.743,582.625 451.743,566.292 506.5,523.5C 506.435,523.938 506.601,524.272 507,524.5C 508.129,522.859 509.629,521.859 511.5,521.5 Z" />
    </g>
    <g>
        <path style="opacity:1" fill="#fcd58f"
            d="M 260.5,563.5 C 275.242,569.525 290.242,574.525 305.5,578.5C 304.833,578.5 304.5,578.833 304.5,579.5C 294.634,577.378 284.967,574.545 275.5,571C 270.129,568.981 265.129,566.481 260.5,563.5 Z" />
    </g>
</svg>