<?xml version="1.0" encoding="UTF-8" standalone="no"?>
<!-- Created with Inkscape (http://www.inkscape.org/) -->

<svg
   width="62.911285mm"
   height="53.979309mm"
   viewBox="0 0 62.911285 53.979309"
   version="1.1"
   id="svg5"
   xml:space="preserve"
   xmlns="http://www.w3.org/2000/svg"
   xmlns:svg="http://www.w3.org/2000/svg"><defs
     id="defs2"><clipPath
       clipPathUnits="userSpaceOnUse"
       id="clipPath1483"><ellipse
         style="display:none;opacity:0.311033;fill:#ff0000;stroke-width:0.262432"
         id="ellipse1485"
         cx="75.911507"
         cy="135.31258"
         rx="26.239416"
         ry="25.330828"
         d="M 102.15092,135.31258 A 26.239416,25.330828 0 0 1 75.911507,160.6434 26.239416,25.330828 0 0 1 49.672091,135.31258 26.239416,25.330828 0 0 1 75.911507,109.98175 26.239416,25.330828 0 0 1 102.15092,135.31258 Z" /><path
         id="lpe_path-effect1487"
         style="opacity:0.311033;fill:#ff0000;stroke-width:0.262432"
         class="powerclip"
         d="m 40.871584,103.09125 h 65.696666 v 63.97931 H 40.871584 Z m 61.279336,32.22133 A 26.239416,25.330828 0 0 0 75.911507,109.98175 26.239416,25.330828 0 0 0 49.672091,135.31258 26.239416,25.330828 0 0 0 75.911507,160.6434 26.239416,25.330828 0 0 0 102.15092,135.31258 Z" /></clipPath></defs><g
     id="layer1"
     transform="translate(-64.702898,-110.60276)"><path
       style="opacity:1;fill:#c0a15d;fill-opacity:1;stroke-width:0.279068"
       id="path1391"
       clip-path="url(#clipPath1483)"
       d="M 101.56825,135.0809 A 27.848333,26.989656 0 0 1 73.719917,162.07056 27.848333,26.989656 0 0 1 45.871584,135.0809 27.848333,26.989656 0 0 1 73.719917,108.09125 27.848333,26.989656 0 0 1 101.56825,135.0809 Z"
       transform="translate(18.831312,2.5115199)" /><path
       style="fill:#080808;stroke:none;stroke-width:0.154437"
       d="m 72.894142,138.21376 -0.154438,1.2355 c 1.765158,0.36413 6.087799,0.11659 4.584027,-2.93371 -0.569272,-1.15474 -1.890947,-1.07782 -2.680971,-1.91462 -0.912154,-0.9662 0.616158,-1.36828 1.339898,-1.30284 0.362172,0.0328 0.71835,0.0995 1.081293,0.12811 v -1.2355 c -0.620853,-0.0785 -1.223901,-0.17596 -1.853248,-0.14835 -1.609284,0.0706 -3.350829,1.54389 -2.204193,3.23042 0.637549,0.93774 1.911843,0.90687 2.598147,1.7385 1.414075,1.71349 -2.067037,1.2971 -2.710515,1.20249 m 5.868621,0 -0.154437,1.2355 c 1.765142,0.36413 6.087801,0.11659 4.584025,-2.93371 -0.56927,-1.15474 -1.890945,-1.07782 -2.68097,-1.91462 -0.912154,-0.9662 0.616159,-1.36828 1.339899,-1.30284 0.362171,0.0328 0.71835,0.0995 1.081296,0.12811 v -1.2355 c -0.620857,-0.0785 -1.223904,-0.17596 -1.853251,-0.14835 -1.609285,0.0706 -3.350829,1.54389 -2.204193,3.23042 0.637548,0.93774 1.911843,0.90687 2.598147,1.7385 1.414078,1.71349 -2.067036,1.2971 -2.710516,1.20249 m 6.023061,-6.02306 v 7.413 h 1.544373 v -7.413 h -1.544373 m 3.243186,0 v 7.413 h 1.544373 v -2.77988 c 1.96629,-0.0405 5.179834,-2.11891 2.61694,-4.09105 -1.09913,-0.84583 -2.86528,-0.54207 -4.161313,-0.54207 m 6.177497,0 v 7.413 h 1.38994 v -5.86862 h 0.15444 c 0.22686,1.54225 0.89867,3.00736 1.38993,4.47868 0.17715,0.53068 0.29034,1.26562 0.94315,1.36634 0.97744,0.15077 1.16029,-0.62217 1.4389,-1.36634 0.553193,-1.47729 1.247853,-3.06912 1.478893,-4.63312 h 0.15443 v 6.02306 h 1.38994 v -7.413 l -2.20814,0.15874 -0.623173,1.38564 -1.18406,4.01537 h -0.15444 l -1.69881,-5.55975 h -2.471 m 9.420683,0 v 1.2355 h 2.00769 v 6.1775 h 1.54438 v -6.1775 h 2.16212 v -1.2355 h -5.71419 m -14.053807,3.39762 v -2.31656 c 2.27641,0.0488 2.3076,2.29722 0,2.31656 z"
       id="path2936" /><path
       style="fill:#e4853f;fill-opacity:1;stroke:none;stroke-width:0.0817978"
       d="m 118.61642,129.95121 -2.12675,3.9263 2.29034,-0.56203 2.04494,0.48024 c -0.49085,-1.18433 -1.33305,-2.90938 -2.20853,-3.84451 m -0.32719,3.76271 c -0.77578,0.23145 -1.55163,0.29273 -2.29034,0.68058 -2.18291,1.14605 -3.27192,3.30282 -3.27192,5.69966 h 5.97124 v 5.15326 c -2.40776,-0.30454 -4.27911,-1.66598 -5.07147,-4.0081 h 3.43552 c 0.30028,0 1.01863,0.13677 1.1176,-0.25716 0.16204,-0.6449 -0.83981,-0.47902 -1.19941,-0.47902 -1.30268,0 -3.00526,-0.28719 -4.25348,0.0818 0.45434,2.34285 1.84388,4.26886 4.17168,5.04423 0.43354,0.14438 2.02287,0.66134 2.36986,0.22331 0.2485,-0.3137 0.0842,-1.20178 0.0842,-1.58664 v -4.17168 h 4.98968 c -0.17023,2.15365 -1.61469,4.12253 -3.68092,4.82606 v -4.25348 c -0.19827,6.1e-4 -0.5118,-0.0461 -0.65209,0.13112 -0.1801,0.22772 -0.0842,0.74166 -0.0842,1.01404 v 2.69934 c 0,0.33366 -0.17356,1.26573 0.33202,1.27212 2.10418,0.0263 4.06471,-2.40781 4.58321,-4.21685 0.13359,-0.46607 0.49513,-1.64667 0.15395,-2.07742 -0.22944,-0.28972 -1.13576,-0.13112 -1.47006,-0.13112 h -4.1717 v -4.90787 c 2.20773,0.54389 3.97137,1.56042 4.74428,3.8445 h -4.0899 v 0.65438 h 4.98967 c -0.25209,-3.1676 -3.32172,-5.23506 -6.29844,-5.23506 v 5.64405 h -5.23507 c 0.28303,-2.19157 1.95956,-4.4055 4.2535,-4.74427 v 4.25348 h 0.65439 v -3.51731 l -0.0818,-1.63595 m -5.88945,7.28001 -2.20854,3.8445 4.49889,-0.0818 v -0.0817 c -0.85727,-0.53618 -1.51819,-1.34459 -1.87599,-2.29033 -0.16765,-0.44311 -0.14811,-1.00308 -0.41436,-1.39056 m 12.92406,0 c -0.21153,0.85855 -0.33635,1.64095 -0.88022,2.37213 -0.3865,0.51967 -0.93937,0.88195 -1.32833,1.39056 h 4.49889 l -2.29034,-3.76269 m -10.87912,4.98967 0.409,0.65438 h -4.66248 v 0.16359 c 0.47542,0 1.12897,-0.14715 1.39056,0.3272 h -0.89978 l 0.32719,0.24539 -0.57258,0.16359 0.49078,0.57258 0.24541,-0.81797 0.57258,0.81797 v -1.30876 h 0.40898 v 1.30876 l 0.2454,-0.0817 c -0.28102,-1.18035 0.30636,-1.22697 1.30876,-1.22697 v 0.40899 c -0.16325,0 -0.32797,-0.006 -0.49111,0.001 -1.05851,0.047 -0.0761,1.14207 3.1e-4,0.16204 h 0.49079 v 0.73619 h 0.2454 v -1.30877 l 0.98158,0.24539 c -0.94008,0.10499 -0.78451,1.12219 0.16359,0.89977 l 0.16359,0.3272 -0.16359,-0.73617 c -0.52419,0.54157 -0.82083,-0.21865 0,-0.24541 v -0.49078 h 1.30876 v 0.32719 c -0.92215,-0.26167 -0.97995,0.94075 0,0.65439 v 0.32719 h 0.16359 v -1.30877 h 0.409 v -0.1636 l -1.71776,-0.0494 -0.81797,-0.60506 m 5.80765,0 0.1636,0.57258 -0.6544,-0.40898 0.40901,0.49078 h -0.5726 v 0.16359 l 0.89978,0.0818 v 0.24539 c -0.89357,-0.14436 -0.85994,0.79427 0,0.49079 v 0.49079 c 0.24017,-0.31492 0.15639,-0.69749 0.65438,-0.65438 l -0.1636,0.40899 c 0.56458,-0.19868 0.1609,-0.7015 -0.32718,-0.57258 v -0.4908 h 1.71775 v 0.32719 c -0.96751,-0.28278 -0.98174,0.94118 0,0.6544 v 0.32718 h 0.16359 v -1.30877 c 0.55354,0 1.16979,-0.077 1.71612,0.0121 0.42323,0.0691 0.34232,0.37423 0.001,0.4787 0.14625,0.50852 0.50444,0.57503 0.98158,0.49078 v 0.32718 h 0.16359 c 0,-0.69298 -0.12449,-1.29862 0.73618,-1.30875 -0.0234,0.30739 -0.32434,0.60259 -0.28915,0.8888 0.0532,0.4328 0.41307,0.0848 0.45275,-0.15262 h 0.57257 l 0.2454,0.57257 v -1.30875 h 0.32719 v -0.16361 h -4.58067 l -2.03611,-0.0494 -0.58143,-0.60507 m -2.78112,0.65437 v 0.16362 h 1.06338 v 0.40898 c -0.67271,6.2e-4 -1.38223,0.51803 -0.4908,0.98158 -0.22207,-0.57324 -0.17634,-0.81014 0.4908,-0.81798 v 0.73618 h 0.24539 v -1.30876 h 0.32718 v -0.16362 h -1.63595 m 7.7708,0.16362 c -3.1e-4,0.55901 -0.0454,0.80316 -0.65439,0.81797 l 0.24539,-0.81797 h 0.409 m 1.63596,0 v 0.49078 h -0.57258 c 0.0312,-0.39999 0.18616,-0.47811 0.57258,-0.49078 m -3.43551,1.30876 c -0.11524,-0.32793 -0.32891,-0.71328 0.16359,-0.73618 l -0.0817,0.24539 0.0817,0.0817 0.57259,-0.40898 c -0.28793,-0.004 -0.61333,-0.18544 -0.89086,-0.12344 -0.60491,0.13496 -0.16688,0.78279 0.15468,0.94141 m -7.03453,-0.81797 c -0.13534,0.44546 -0.51904,0.44546 -0.65438,0 h 0.65438 m 5.97124,0 c -0.26134,0.82672 -1.04365,-0.22406 0,0 m -1.96315,0 -0.49078,0.24539 v -0.24539 h 0.49078 m -7.4436,0.0818 0.0817,0.32719 -0.0817,-0.32719 m 13.16945,0.1636 -0.1636,0.24539 v -0.24539 h 0.1636 m -7.77078,0.73617 v 0.1636 h 0.40898 c -0.12507,0.41153 -0.37603,0.39385 -0.73618,0.24539 l -0.0818,0.24539 c 0.2256,0.0713 0.4903,0.1888 0.72727,0.0996 0.6386,-0.24024 0.11335,-0.73987 -0.31827,-0.75401 m 8.50697,0.0818 0.65438,0.24539 z"
       id="path2962" /><path
       style="fill:#000000;stroke-width:0.109191"
       d="m 96.408507,146.91968 c -0.98949,-0.36816 -1.16346,-0.85051 -1.16346,-3.22592 v -1.64412 h 0.49137 0.49135 l 2.2e-4,1.66517 c 1.1e-4,1.36868 0.0341,1.73222 0.19109,2.04178 0.23099,0.45566 0.6431,0.59444 1.21207,0.40815 0.56007,-0.18338 0.65767,-0.55083 0.66514,-2.50453 l 0.006,-1.61057 h 0.44366 0.44365 l -0.0341,1.95782 c -0.0312,1.78987 -0.0539,1.98424 -0.26399,2.26572 -0.50152,0.67197 -1.627,0.96501 -2.48304,0.6465 z m -16.861756,-2.38594 0.02939,-2.4295 1.157012,0.0103 c 1.432053,0.0127 1.938251,0.20813 2.139953,0.82604 0.196235,0.60116 0.0121,1.14533 -0.46449,1.37259 l -0.375718,0.17917 0.217871,0.23192 c 0.119838,0.12756 0.411951,0.68598 0.649147,1.24095 l 0.431278,1.00904 -0.551511,-0.0328 -0.551519,-0.0328 -0.349535,-0.87341 c -0.358811,-0.89659 -0.636789,-1.17924 -1.101382,-1.11991 -0.198003,0.0253 -0.221311,0.12214 -0.249778,1.0379 l -0.03141,1.01002 h -0.489356 -0.489351 z m 1.891482,-0.40947 c 0.40651,0 0.661291,-0.81009 0.338927,-1.07763 -0.08058,-0.0669 -0.387724,-0.13435 -0.682446,-0.14986 l -0.535857,-0.0281 -0.03381,0.53208 c -0.04772,0.75 0.01982,0.87383 0.431329,0.79152 0.186752,-0.0373 0.403592,-0.0679 0.481877,-0.0679 z m 2.014184,2.75475 c 0,-0.0463 0.414646,-1.13959 0.921436,-2.4295 l 0.921436,-2.34528 h 0.555682 0.55569 l 0.968182,2.4295 0.96819,2.4295 h -0.52997 -0.52997 l -0.193909,-0.54596 -0.19391,-0.54595 H 85.837772 84.78026 l -0.181336,0.54595 -0.181337,0.54596 h -0.482581 c -0.265422,0 -0.482589,-0.0378 -0.482589,-0.0842 z m 2.771182,-2.83664 c -0.201865,-0.58554 -0.36796,-1.08918 -0.369101,-1.1192 -0.0017,-0.0524 -0.764215,2.09729 -0.764215,2.1554 0,0.0156 0.33758,0.0284 0.750175,0.0284 h 0.750166 z m 2.822777,0.49136 0.02935,-2.4295 0.464069,-0.0335 0.464061,-0.0336 v 2.46308 2.46308 h -0.493445 -0.493454 z m 2.183815,0 0.02935,-2.4295 1.044576,0.0127 c 1.60007,0.0194 2.17657,0.40369 2.17657,1.45086 0,0.9205 -0.50054,1.38299 -1.6238,1.50039 l -0.669217,0.07 v 0.91257 0.91257 h -0.493453 -0.493446 z m 2.025126,-0.36106 c 0.24457,-0.1713 0.3339,-0.72571 0.15912,-0.98748 -0.1354,-0.20277 -0.54015,-0.37122 -0.89198,-0.37122 h -0.334751 v 0.76434 0.76434 h 0.412471 c 0.22685,0 0.52167,-0.0765 0.65514,-0.16998 z m 7.037733,0.36106 0.0293,-2.4295 1.15702,0.0103 c 1.43205,0.0127 1.93826,0.20813 2.13995,0.82604 0.19623,0.60116 0.0121,1.14533 -0.46449,1.37259 l -0.37573,0.17917 0.21789,0.23192 c 0.11983,0.12756 0.41194,0.68598 0.64914,1.24095 l 0.43128,1.00904 -0.55152,-0.0328 -0.55151,-0.0328 -0.34954,-0.87341 c -0.35881,-0.89659 -0.63679,-1.17924 -1.10138,-1.11991 -0.198,0.0253 -0.22131,0.12214 -0.24978,1.0379 l -0.0314,1.01002 h -0.48934 -0.48935 z m 1.89148,-0.40947 c 0.40652,0 0.6613,-0.81009 0.33893,-1.07763 -0.0806,-0.0669 -0.38772,-0.13435 -0.68244,-0.14986 l -0.53586,-0.0281 -0.0338,0.53208 c -0.0477,0.75 0.0198,0.87383 0.43133,0.79152 0.18674,-0.0373 0.40359,-0.0679 0.48187,-0.0679 z"
       id="path5230" /></g></svg>
