<?xml version="1.0" encoding="UTF-8" standalone="no"?>
<!-- Created with Inkscape (http://www.inkscape.org/) -->

<svg
   version="1.1"
   id="svg2"
   width="428.1709"
   height="639.57861"
   viewBox="0 0 428.1709 639.57861"
   sodipodi:docname="designing-club.jpg"
   xml:space="preserve"
   xmlns:inkscape="http://www.inkscape.org/namespaces/inkscape"
   xmlns:sodipodi="http://sodipodi.sourceforge.net/DTD/sodipodi-0.dtd"
   xmlns="http://www.w3.org/2000/svg"
   xmlns:svg="http://www.w3.org/2000/svg"><defs
     id="defs6" /><sodipodi:namedview
     id="namedview4"
     pagecolor="#ffffff"
     bordercolor="#000000"
     borderopacity="0.25"
     inkscape:showpageshadow="2"
     inkscape:pageopacity="0.0"
     inkscape:pagecheckerboard="0"
     inkscape:deskcolor="#d1d1d1"
     showgrid="false" /><g
     inkscape:groupmode="layer"
     inkscape:label="Image"
     id="g8"
     transform="translate(-596.5365,62.803642)"><path
       style="fill:#0c0c0c;stroke:none;stroke-width:2.03891"
       d="m 663.82049,70.055462 69.3229,-40.77818 c 3.38663,7.24425 9.44831,14.47829 10.86943,22.428 4.79551,26.81165 -4.52026,46.45858 18.28697,68.658208 41.23286,40.13389 114.03821,9.91114 112.63952,-48.269118 -0.524,-21.77555 -11.32614,-42.76611 -29.65593,-54.83034 -10.8368,-7.1321 -38.84529,-13.7648801 -35.21807,-32.63029 1.21315,-6.31694 10.01512,-10.0088 14.82898,-13.14606 15.54464,-10.13114 31.76009,-19.12864 46.89491,-29.88348 -8.68576,-14.78331 -38.69442,11.82629 -48.93382,18.24803 -41.38169,25.9545 -82.96524,51.55809 -124.37344,77.47874 -11.46274,7.17492 -38.39673,16.53759 -34.66145,32.72449 m 191.65744,69.322898 38.73926,163.1127 c 7.80495,-2.95845 20.48288,-8.50836 20.70104,-18.38076 0.28953,-13.14892 -11.73188,-32.5573 -16.62322,-44.82541 -13.22844,-33.17305 -25.59646,-66.70086 -38.73927,-99.90653 h -4.07781 m -89.71199,6.11672 c -36.46997,63.39376 -108.12539,52.23073 -169.22944,67.284 17.28179,36.8023 65.56315,57.01808 85.82991,93.7898 16.40098,29.7538 8.61031,56.18417 7.9599,87.67308 h 2.03891 l 77.47854,-248.74688 h -4.07782 m 69.3229,4.07782 11.65236,97.86762 16.89236,116.21781 23.73902,-18.72534 -11.48314,-52.63647 -34.68388,-142.72362 h -6.11672 m -144.76253,299.7196 2.03891,2.03891 159.03489,-55.05054 c -7.94563,-62.53741 -17.13703,-125.13395 -25.64132,-187.57961 -3.62926,-26.63835 1.3049,-60.94299 -35.31186,-55.33803 -8.19438,1.25393 -9.73171,9.94376 -11.9215,16.59876 -5.78031,17.57743 -10.29649,35.51167 -16.39894,53.01163 -26.05318,74.6995 -46.45654,151.40733 -71.80018,226.31888 M 892.17828,180.15653 c 4.5223,13.37117 13.06329,53.86186 25.58627,60.88998 5.44185,3.05224 12.78396,-2.79739 17.23082,-5.4337 14.22139,-8.43496 32.18825,-16.12165 42.81708,-28.95046 l -85.63417,-26.50582 m -46.8949,232.43561 28.54473,17.85268 69.32289,35.15895 c -1.08673,-52.61812 -30.4042,-106.27201 -4.87503,-156.99598 19.58168,-38.90646 68.57663,-57.54209 86.43143,-95.82871 -26.04099,-7.69689 -52.36534,17.31033 -73.40076,30.19827 -7.09948,4.349 -20.30753,9.66035 -24.2202,17.36743 -5.56826,10.96933 10.01104,22.5646 3.97995,33.80103 -6.31858,11.76858 -24.86041,13.85642 -29.42145,26.87893 -3.66596,10.46776 6.99957,22.03449 2.21221,32.06388 -5.84147,12.22938 -24.43428,16.34797 -33.45645,25.89822 -13.47107,14.25605 4.05743,31.19939 -25.11732,33.6053 m -183.5018,136.60689 c -12.35579,29.33378 33.27092,33.53801 50.5364,20.16684 36.4353,-28.21442 -32.92838,-40.28068 -32.92838,-58.87553 0,-25.03576 30.61218,9.21995 36.20491,-2.71786 4.5855,-9.79084 -5.34195,-14.64548 -13.03679,-16.33574 -12.12335,-2.66485 -30.69782,-1.1948 -39.03491,9.28723 -21.34738,26.83204 26.25911,33.08537 35.39546,48.56273 6.76102,11.45459 -8.33302,22.12624 -18.17687,14.70461 -7.68058,-5.79254 -8.70411,-12.08257 -18.95982,-14.79228 m 77.47854,26.50581 30.29615,-3.2908 0.28749,-21.1761 c 8.11689,0 25.25188,-3.28672 28.96066,6.3879 1.87579,4.89746 -3.55994,12.43123 0.92362,16.06456 6.73452,5.45408 25.01945,2.01444 33.32189,2.01444 -2.37125,-7.49707 -8.87537,-11.37099 -12.40472,-18.38892 -8.12301,-16.14408 -12.19472,-34.37396 -19.44304,-50.93194 -3.02166,-6.90374 -8.22088,-15.37133 -16.99838,-14.72704 -9.05479,0.66265 -11.27109,12.02141 -14.07663,18.80282 -8.78973,21.23931 -24.53011,44.39112 -30.86704,65.24508 m 183.5018,-16.31127 c -12.13559,4.67522 -26.70563,11.90927 -38.64956,3.02982 -17.13703,-12.74114 -18.54795,-52.47132 3.99626,-61.08163 13.44049,-5.13397 21.11086,12.75134 34.6533,13.19582 -0.0204,-27.68431 -31.72542,-30.53674 -53.00348,-18.16872 -15.4325,8.96916 -19.07807,26.1327 -18.27678,42.63562 1.14383,23.54328 18.25436,36.59842 40.69662,36.69832 12.47405,0.0571 32.03942,0.66061 30.58364,-16.30923 m -136.60689,-48.93381 8.15563,32.62254 h -20.38909 c 0.9848,-11.28128 3.89024,-24.68711 12.23346,-32.62254 z"
       id="path318"
       inkscape:export-filename="sav-alt.svg"
       inkscape:export-xdpi="96"
       inkscape:export-ydpi="96" /></g></svg>
